<svg width="320" height="320" viewBox="0 0 32 32" fill="none" xmlns="http://www.w3.org/2000/svg">
    <path d="M5 0 H27 C29.7614 0 32 2.2386 32 5 V27 C32 29.7614 29.7614 32 27 32 H5 C2.2386 32 0 29.7614 0 27 V5 C0 2.2386 2.2386 0 5 0 Z M5 2 H27 C28.6569 2 30 3.3431 30 5 V27 C30 28.6569 28.6569 30 27 30 H5 C3.3431 30 2 28.6569 2 27 V5 C2 3.3431 3.3431 2 5 2 Z" fill="#212121" fill-rule="evenodd"/>
    <path d="M8 10 c0 0.2761 0.22386 0.5 0.5 0.5 h15 c0.2761 0 0.5 -0.2239 0.5 -0.5 v-2 c0 -0.2761 -0.2239 -0.5 -0.5 -0.5 h-15 c-0.27614 0 -0.5 0.2239 -0.5 0.5 v2z" fill="#212121"/>
    <path d="M8 16.5 c0 0.2761 0.22386 0.5 0.5 0.5 h15 c0.2761 0 0.5 -0.2239 0.5 -0.5 v-2 c0 -0.2761 -0.2239 -0.5 -0.5 -0.5 h-15 c-0.27614 0 -0.5 0.2239 -0.5 0.5 v2z" fill="#212121"/>
    <path d="M8 23.5 c0 0.2761 0.22386 0.5 0.5 0.5 h15 c0.2761 0 0.5 -0.2239 0.5 -0.5 v-2 c0 -0.2761 -0.2239 -0.5 -0.5 -0.5 h-15 c-0.27614 0 -0.5 0.2239 -0.5 0.5 v2z" fill="#212121"/>
</svg>