<svg width="320" height="320" viewBox="0 0 32 32" fill="none" xmlns="http://www.w3.org/2000/svg">
    <path d="M5 0 H27 C29.7614 0 32 2.2386 32 5 V27 C32 29.7614 29.7614 32 27 32 H5 C2.2386 32 0 29.7614 0 27 V5 C0 2.2386 2.2386 0 5 0 Z M5 2 H27 C28.6569 2 30 3.3431 30 5 V27 C30 28.6569 28.6569 30 27 30 H5 C3.3431 30 2 28.6569 2 27 V5 C2 3.3431 3.3431 2 5 2 Z" fill="#212121" fill-rule="evenodd"/>
    <path d="M17 15.0377L10.6934 8.9692C10.0581 8.35788 9 8.80811 9 9.68977L9 22.3102C9 23.1919 10.0581 23.6421 10.6934 23.0308L17 16.9622V22.3102C17 23.1919 18.0581 23.6421 18.6934 23.0308L25.2512 16.7206C25.66 16.3272 25.66 15.6728 25.2512 15.2794L18.6934 8.9692C18.0581 8.35788 17 8.80811 17 9.68977V15.0377Z" fill="#212121"/>
</svg>