<svg width="320" height="320" viewBox="0 0 32 32" fill="none" xmlns="http://www.w3.org/2000/svg">
    <path d="M5 0 H27 C29.7614 0 32 2.2386 32 5 V27 C32 29.7614 29.7614 32 27 32 H5 C2.2386 32 0 29.7614 0 27 V5 C0 2.2386 2.2386 0 5 0 Z M5 2 H27 C28.6569 2 30 3.3431 30 5 V27 C30 28.6569 28.6569 30 27 30 H5 C3.3431 30 2 28.6569 2 27 V5 C2 3.3431 3.3431 2 5 2 Z" fill="#212121" fill-rule="evenodd"/>
    <path d="M11 10C11 9.44772 11.4477 9 12 9H14C14.5523 9 15 9.44772 15 10V22C15 22.5523 14.5523 23 14 23H12C11.4477 23 11 22.5523 11 22V10Z" fill="#212121"/>
    <path d="M18 9C17.4477 9 17 9.44772 17 10V22C17 22.5523 17.4477 23 18 23H20C20.5523 23 21 22.5523 21 22V10C21 9.44772 20.5523 9 20 9H18Z" fill="#212121"/>
</svg>