<svg width="320" height="320" viewBox="0 0 32 32" fill="none" xmlns="http://www.w3.org/2000/svg">
    <path d="M5 0 H27 C29.7614 0 32 2.2386 32 5 V27 C32 29.7614 29.7614 32 27 32 H5 C2.2386 32 0 29.7614 0 27 V5 C0 2.2386 2.2386 0 5 0 Z M5 2 H27 C28.6569 2 30 3.3431 30 5 V27 C30 28.6569 28.6569 30 27 30 H5 C3.3431 30 2 28.6569 2 27 V5 C2 3.3431 3.3431 2 5 2 Z" fill="#212121" fill-rule="evenodd"/>
    <path d="M23.5 16.866C24.1667 16.4811 24.1667 15.5189 23.5 15.134L11.5 8.20577C10.8333 7.82087 10 8.302 10 9.0718L10 22.9282C10 23.698 10.8333 24.1791 11.5 23.7942L23.5 16.866Z" fill="#212121"/>
</svg>