<svg width="320" height="320" viewBox="0 0 32 32" fill="none" xmlns="http://www.w3.org/2000/svg">
    <path d="M5 0 H27 C29.7614 0 32 2.2386 32 5 V27 C32 29.7614 29.7614 32 27 32 H5 C2.2386 32 0 29.7614 0 27 V5 C0 2.2386 2.2386 0 5 0 Z M5 2 H27 C28.6569 2 30 3.3431 30 5 V27 C30 28.6569 28.6569 30 27 30 H5 C3.3431 30 2 28.6569 2 27 V5 C2 3.3431 3.3431 2 5 2 Z" fill="#212121" fill-rule="evenodd"/>
    <path d="M15 15.0378V9.68977C15 8.80811 13.9419 8.35788 13.3066 8.9692L6.74885 15.2794C6.34001 15.6728 6.34001 16.3272 6.74885 16.7206L13.3066 23.0308C13.9419 23.6421 15 23.1919 15 22.3102V16.9622L21.3066 23.0308C21.9419 23.6421 23 23.1919 23 22.3102V9.68977C23 8.80811 21.9419 8.35788 21.3066 8.9692L15 15.0378Z" fill="#212121"/>
</svg>