<svg width="320" height="320" viewBox="0 0 32 32" fill="none" xmlns="http://www.w3.org/2000/svg">
    <path d="M5 0 H27 C29.7614 0 32 2.2386 32 5 V27 C32 29.7614 29.7614 32 27 32 H5 C2.2386 32 0 29.7614 0 27 V5 C0 2.2386 2.2386 0 5 0 Z M5 2 H27 C28.6569 2 30 3.3431 30 5 V27 C30 28.6569 28.6569 30 27 30 H5 C3.3431 30 2 28.6569 2 27 V5 C2 3.3431 3.3431 2 5 2 Z" fill="#212121" fill-rule="evenodd"/>
    <path d="M17 9.68977V15.0378L23.3066 8.9692C23.9419 8.35788 25 8.80811 25 9.68977V22.3102C25 23.1919 23.9419 23.6421 23.3066 23.0308L17 16.9622V22.3102C17 23.1919 15.9419 23.6421 15.3066 23.0308L9 16.9623V22.5C9 22.7761 8.77614 23 8.5 23H7.5C7.22386 23 7 22.7761 7 22.5V9.5C7 9.22386 7.22386 9 7.5 9H8.5C8.77614 9 9 9.22386 9 9.5V15.0378L15.3066 8.9692C15.9419 8.35788 17 8.80811 17 9.68977Z" fill="#212121"/>
</svg>
