<svg width="320" height="320" viewBox="0 0 32 32" fill="none" xmlns="http://www.w3.org/2000/svg">
    <path d="M5 0 H27 C29.7614 0 32 2.2386 32 5 V27 C32 29.7614 29.7614 32 27 32 H5 C2.2386 32 0 29.7614 0 27 V5 C0 2.2386 2.2386 0 5 0 Z M5 2 H27 C28.6569 2 30 3.3431 30 5 V27 C30 28.6569 28.6569 30 27 30 H5 C3.3431 30 2 28.6569 2 27 V5 C2 3.3431 3.3431 2 5 2 Z" fill="#212121" fill-rule="evenodd"/>
    <path d="M15.3429 16.6897C15.7109 16.3035 15.7109 15.6965 15.3429 15.3103L9.47405 9.14953C8.85145 8.49597 7.75 8.93663 7.75 9.83928L7.75 22.1607C7.75 23.0634 8.85145 23.504 9.47405 22.8505L15.3429 16.6897Z" fill="#212121"/>
    <path d="M17 9.5C17 9.22386 17.2239 9 17.5 9H19.5C19.7761 9 20 9.22386 20 9.5V22.5C20 22.7761 19.7761 23 19.5 23H17.5C17.2239 23 17 22.7761 17 22.5V9.5Z" fill="#212121"/>
    <path d="M21.5 9C21.2239 9 21 9.22386 21 9.5V22.5C21 22.7761 21.2239 23 21.5 23H23.5C23.7761 23 24 22.7761 24 22.5V9.5C24 9.22386 23.7761 9 23.5 9H21.5Z" fill="#212121"/>
</svg>
