<svg width="320" height="320" viewBox="0 0 32 32" fill="none" xmlns="http://www.w3.org/2000/svg">
    <path d="M5 0 H27 C29.7614 0 32 2.2386 32 5 V27 C32 29.7614 29.7614 32 27 32 H5 C2.2386 32 0 29.7614 0 27 V5 C0 2.2386 2.2386 0 5 0 Z M5 2 H27 C28.6569 2 30 3.3431 30 5 V27 C30 28.6569 28.6569 30 27 30 H5 C3.3431 30 2 28.6569 2 27 V5 C2 3.3431 3.3431 2 5 2 Z" fill="#212121" fill-rule="evenodd"/>
    <path d="M9.5 8C8.67157 8 8 8.67157 8 9.5V22.5C8 23.3284 8.67157 24 9.5 24H22.5C23.3284 24 24 23.3284 24 22.5V9.5C24 8.67157 23.3284 8 22.5 8H9.5Z" fill="#212121"/>
</svg>